<svg xmlns="http://www.w3.org/2000/svg" width="95.76" height="82.367" viewBox="0 0 95.76 82.367">
  <defs>
    <style>
      .cls-1, .cls-2, .cls-3, .cls-4 {
        fill: rgba(46,255,255,0);
      }

      .cls-1, .cls-2, .cls-5, .cls-6, .cls-7 {
        stroke: #fff;
      }

      .cls-1 {
        stroke-width: 2.365px;
      }

      .cls-2, .cls-3, .cls-4 {
        stroke-width: 1.61px;
      }

      .cls-3, .cls-4 {
        stroke: #ffca00;
      }

      .cls-4 {
        stroke-linejoin: round;
      }

      .cls-5, .cls-7 {
        fill: rgba(255,255,255,0);
      }

      .cls-5 {
        stroke-width: 1.61px;
      }

      .cls-6 {
        fill: rgba(50,255,255,0);
      }

      .cls-6, .cls-7 {
        stroke-width: 1.072px;
      }

      .cls-8 {
        fill: #fff;
        stroke: rgba(115,0,0,0);
        stroke-width: 0.426px;
      }
    </style>
  </defs>
  <g id="layer1" transform="translate(-63.781 -104.713)">
    <g id="g1321" transform="translate(65.149 105.897)">
      <path id="path4809" class="cls-1" d="M88.348,185.832l-23.2-40L88.462,105.9l46.513.065,23.2,40L134.859,185.9Z" transform="translate(-65.149 -105.897)"/>
      <g id="g2655" transform="translate(18.088 25.051)">
        <path id="path1757" class="cls-2" d="M38.138,117.812c-3.577-.4-4.27-7.751-2.849-10.274,1.479-2.626,4.892-4.387,8.23-6.892a42.186,42.186,0,0,0,8.762-8.859c-2.22,12.612-4.226,27.131-14.143,26.026Zm50.22,0c3.577-.4,4.27-7.751,2.849-10.274-1.479-2.626-4.892-4.387-8.23-6.892a42.185,42.185,0,0,1-8.762-8.859C76.435,104.4,78.441,118.917,88.358,117.812Z" transform="translate(-34.6 -76.608)"/>
        <ellipse id="path1761" class="cls-2" cx="5.107" cy="5.41" rx="5.107" ry="5.41" transform="translate(23.409 0)"/>
        <path id="path1767" class="cls-3" d="M67.149,101.981c4.662,2.205,7.228,2.641,12.449,0" transform="translate(-44.708 -78.297)"/>
        <path id="path1813" class="cls-2" d="M65.816,95.213c5.867,4.742,10.267,3.489,14.477-.165" transform="translate(-44.353 -76.451)"/>
        <path id="path1845" class="cls-3" d="M66.324,90.487c5.165,4.017,9.837,2.979,13.618-.093" transform="translate(-44.488 -75.211)"/>
        <path id="path1847" class="cls-2" d="M65.174,106.71c5.431,4.172,10.415,3.462,15.313.462" transform="translate(-44.182 -79.557)"/>
        <path id="path1855" class="cls-3" d="M64.262,111.295c5.695,4.98,11.248,4.523,16.584.2" transform="translate(-43.939 -80.779)"/>
        <path id="path1981" class="cls-4" d="M67.5,124.11c3.764,2.313,7.36,3,12.012-.113" transform="translate(-44.802 -84.162)"/>
        <path id="path899" class="cls-2" d="M65.192,118.665c4.993,2.369,10.092,2.687,15.349-.049" transform="translate(-44.186 -82.729)"/>
      </g>
      <path id="path1751" class="cls-5" d="M128.669,189.441l-5.556.07c-3.857-5.58-8.3-12.14-3.482-21.463-2.065-5.755-.666-10.478,1.4-11.741,3.171,2.759,6.4,3.036,9.693-.047m-7.684,33.18,5.556.07c3.857-5.58,8.3-12.14,3.482-21.463,2.065-5.755.666-10.478-1.4-11.741-3.171,2.759-6.4,3.036-9.693-.047" transform="translate(-79.102 -119.313)"/>
      <path id="path4731" class="cls-6" d="M120.819,137.041c-.739-2.8-2.147-5.075-5.252-6.044" transform="translate(-78.58 -112.583)"/>
      <path id="path4733" class="cls-7" d="M134.283,137.309c.739-2.8,2.147-5.075,5.252-6.044" transform="translate(-83.565 -112.655)"/>
      <g id="text4737" transform="translate(17.017 6.878)">
        <path id="path904" class="cls-8" d="M82.022,119.554a.1.1,0,0,1,.037.057.127.127,0,0,1-.009.084.656.656,0,0,1-.063.123,1.8,1.8,0,0,1-.128.175,1.767,1.767,0,0,1-.143.159.663.663,0,0,1-.107.087.15.15,0,0,1-.081.026.107.107,0,0,1-.064-.023l-2.933-2.34,0,.006,2.09,3.374a.184.184,0,0,1,.032.085.238.238,0,0,1-.02.1.514.514,0,0,1-.071.121q-.048.071-.124.165a1.694,1.694,0,0,1-.138.154.678.678,0,0,1-.109.095.294.294,0,0,1-.093.035.136.136,0,0,1-.08-.009l-3.741-1.338,0,.006,2.933,2.34a.1.1,0,0,1,.037.057.127.127,0,0,1-.009.084.737.737,0,0,1-.065.126,1.712,1.712,0,0,1-.126.172,1.769,1.769,0,0,1-.143.159.744.744,0,0,1-.11.09.15.15,0,0,1-.081.026.116.116,0,0,1-.061-.026l-3.211-2.563a.374.374,0,0,1-.157-.248.343.343,0,0,1,.086-.259l.385-.475a1.208,1.208,0,0,1,.2-.2.513.513,0,0,1,.2-.1.487.487,0,0,1,.218-.008,1.143,1.143,0,0,1,.258.078l2.774.94.009-.011-1.492-2.51a1.55,1.55,0,0,1-.135-.235.629.629,0,0,1-.05-.2.416.416,0,0,1,.04-.191.841.841,0,0,1,.123-.2l.4-.489a.476.476,0,0,1,.123-.112.261.261,0,0,1,.13-.042.272.272,0,0,1,.134.021.454.454,0,0,1,.138.078Z" transform="translate(-75.274 -104.862)"/>
        <path id="path906" class="cls-8" d="M85.075,117.547a.094.094,0,0,1,.028.063.149.149,0,0,1-.02.085.745.745,0,0,1-.081.12,1.975,1.975,0,0,1-.154.168,2.045,2.045,0,0,1-.169.153.752.752,0,0,1-.121.08.178.178,0,0,1-.088.023.106.106,0,0,1-.061-.03l-3.088-3.064a.1.1,0,0,1-.03-.06.174.174,0,0,1,.023-.088.832.832,0,0,1,.083-.123,1.938,1.938,0,0,1,.152-.166,1.982,1.982,0,0,1,.169-.153.753.753,0,0,1,.121-.08.152.152,0,0,1,.086-.02.094.094,0,0,1,.063.028Z" transform="translate(-76.877 -104.213)"/>
        <path id="path908" class="cls-8" d="M88.42,111.364a3.391,3.391,0,0,1,.543.879,2.061,2.061,0,0,1,.161.86,1.829,1.829,0,0,1-.235.811,2.582,2.582,0,0,1-.639.731,2.9,2.9,0,0,1-.818.487,1.662,1.662,0,0,1-.791.089,1.87,1.87,0,0,1-.779-.31,3.738,3.738,0,0,1-.773-.728,3.27,3.27,0,0,1-.529-.863,2.03,2.03,0,0,1-.157-.854,1.834,1.834,0,0,1,.233-.809,2.571,2.571,0,0,1,.642-.739,2.816,2.816,0,0,1,.8-.476,1.628,1.628,0,0,1,.791-.094,1.847,1.847,0,0,1,.78.305,3.446,3.446,0,0,1,.768.71Zm-.731.659a3.491,3.491,0,0,0-.464-.471,1.391,1.391,0,0,0-.476-.268.906.906,0,0,0-.49-.023,1.243,1.243,0,0,0-.517.27,1.148,1.148,0,0,0-.364.466,1.033,1.033,0,0,0-.07.5,1.445,1.445,0,0,0,.167.52,3.143,3.143,0,0,0,.346.507,3.693,3.693,0,0,0,.477.488,1.469,1.469,0,0,0,.476.273.906.906,0,0,0,.49.023,1.321,1.321,0,0,0,.515-.277,1.175,1.175,0,0,0,.366-.463,1.023,1.023,0,0,0,.068-.5,1.433,1.433,0,0,0-.172-.521A3.1,3.1,0,0,0,87.689,112.023Z" transform="translate(-77.706 -103.115)"/>
        <path id="path910" class="cls-8" d="M94.107,107.738a3.11,3.11,0,0,1,.416,1.014,1.805,1.805,0,0,1-.03.869,1.911,1.911,0,0,1-.434.745,3.722,3.722,0,0,1-.84.652l-.948.563a.306.306,0,0,1-.207.044.3.3,0,0,1-.185-.155l-2.07-3.432a.28.28,0,0,1-.048-.232.293.293,0,0,1,.135-.163l1.018-.6a3.277,3.277,0,0,1,.974-.409,1.866,1.866,0,0,1,.843,0,1.819,1.819,0,0,1,.746.367,2.785,2.785,0,0,1,.629.746Zm-.818.523a2.257,2.257,0,0,0-.381-.48,1.269,1.269,0,0,0-.463-.291,1.118,1.118,0,0,0-.539-.052,1.739,1.739,0,0,0-.659.255l-.408.242,1.615,2.678.42-.249a1.844,1.844,0,0,0,.507-.417,1.069,1.069,0,0,0,.223-.48,1.268,1.268,0,0,0-.032-.564,2.435,2.435,0,0,0-.283-.642Z" transform="translate(-79.131 -102.115)"/>
        <path id="path912" class="cls-8" d="M100.874,104.81a3.374,3.374,0,0,1,.247,1,2.061,2.061,0,0,1-.111.868,1.839,1.839,0,0,1-.473.7,2.6,2.6,0,0,1-.833.5,2.912,2.912,0,0,1-.928.217,1.66,1.66,0,0,1-.781-.154,1.858,1.858,0,0,1-.647-.531,3.712,3.712,0,0,1-.513-.927,3.253,3.253,0,0,1-.239-.982,2.03,2.03,0,0,1,.113-.861,1.844,1.844,0,0,1,.47-.7,2.589,2.589,0,0,1,.838-.509,2.83,2.83,0,0,1,.912-.21,1.627,1.627,0,0,1,.783.15,1.836,1.836,0,0,1,.649.527,3.422,3.422,0,0,1,.513.908Zm-.9.407a3.466,3.466,0,0,0-.3-.589,1.382,1.382,0,0,0-.371-.4.9.9,0,0,0-.46-.17,1.249,1.249,0,0,0-.575.1,1.156,1.156,0,0,0-.489.334,1.038,1.038,0,0,0-.221.457,1.442,1.442,0,0,0,0,.546,3.125,3.125,0,0,0,.174.588,3.668,3.668,0,0,0,.3.609,1.459,1.459,0,0,0,.369.4.9.9,0,0,0,.46.17,1.326,1.326,0,0,0,.576-.108,1.183,1.183,0,0,0,.491-.33,1.027,1.027,0,0,0,.22-.46,1.429,1.429,0,0,0,0-.548,3.087,3.087,0,0,0-.175-.6Z" transform="translate(-80.952 -101.221)"/>
        <path id="path914" class="cls-8" d="M108.943,104.951a.4.4,0,0,1-.036.147.232.232,0,0,1-.1.1.776.776,0,0,1-.185.064q-.114.031-.294.062-.2.035-.326.046a.742.742,0,0,1-.2,0,.212.212,0,0,1-.116-.059.445.445,0,0,1-.073-.128l-1.232-2.739h-.007l-.187,2.984a.451.451,0,0,1-.026.141.21.21,0,0,1-.089.094.6.6,0,0,1-.18.067q-.114.031-.308.064t-.329.046a.742.742,0,0,1-.2,0,.212.212,0,0,1-.116-.059.51.51,0,0,1-.077-.127l-1.727-3.765a1.106,1.106,0,0,1-.07-.19.136.136,0,0,1,.019-.118.255.255,0,0,1,.136-.07q.1-.028.28-.059t.262-.038a.437.437,0,0,1,.152,0,.111.111,0,0,1,.077.044.367.367,0,0,1,.046.1l1.407,3.324h0l.228-3.581a.445.445,0,0,1,.016-.114.152.152,0,0,1,.066-.076.482.482,0,0,1,.146-.058,2.455,2.455,0,0,1,.252-.054q.169-.029.269-.039a.471.471,0,0,1,.16,0,.153.153,0,0,1,.092.049.37.37,0,0,1,.058.105l1.462,3.289h.007l.194-3.59a.416.416,0,0,1,.012-.1.12.12,0,0,1,.056-.074.4.4,0,0,1,.135-.056,2.427,2.427,0,0,1,.255-.055,2.1,2.1,0,0,1,.241-.031.2.2,0,0,1,.135.024.14.14,0,0,1,.052.11,1.159,1.159,0,0,1,0,.209Z" transform="translate(-82.68 -100.494)"/>
        <path id="path916" class="cls-8" d="M116.787,104.927a1.23,1.23,0,0,1,.047.2.126.126,0,0,1-.032.113.236.236,0,0,1-.141.038,2.721,2.721,0,0,1-.275,0q-.182-.005-.286-.016a.745.745,0,0,1-.153-.022.15.15,0,0,1-.074-.048.241.241,0,0,1-.033-.076l-.283-.931-1.736-.052-.32.888a.28.28,0,0,1-.042.084.157.157,0,0,1-.077.051.6.6,0,0,1-.147.02q-.093,0-.247,0a2.471,2.471,0,0,1-.257-.018.2.2,0,0,1-.127-.054.143.143,0,0,1-.021-.118,1.145,1.145,0,0,1,.06-.2l1.55-4.026a.327.327,0,0,1,.053-.094.163.163,0,0,1,.091-.054.644.644,0,0,1,.176-.02q.111,0,.293,0,.211.007.336.017a.75.75,0,0,1,.192.031.169.169,0,0,1,.1.06.317.317,0,0,1,.05.108Zm-2.019-3.428h0l-.713,1.93,1.311.04Z" transform="translate(-85.212 -100.522)"/>
        <path id="path918" class="cls-8" d="M126.009,103.809a1.807,1.807,0,0,1-.3.628,1.345,1.345,0,0,1-.475.393,1.583,1.583,0,0,1-.634.148,2.64,2.64,0,0,1-.794-.105l-.372-.1-.39,1.413a.094.094,0,0,1-.041.055.151.151,0,0,1-.085.025.769.769,0,0,1-.145-.01,2.011,2.011,0,0,1-.223-.05,2.054,2.054,0,0,1-.218-.07.751.751,0,0,1-.13-.065.15.15,0,0,1-.06-.064.1.1,0,0,1,0-.067l1.1-3.981a.329.329,0,0,1,.149-.217.324.324,0,0,1,.247-.021l1.051.286q.159.043.3.1a2.8,2.8,0,0,1,.331.145,1.5,1.5,0,0,1,.364.253,1.218,1.218,0,0,1,.277.366,1.132,1.132,0,0,1,.116.44,1.511,1.511,0,0,1-.058.506Zm-.966-.193a.818.818,0,0,0,.023-.406.586.586,0,0,0-.142-.278.677.677,0,0,0-.231-.158,1.818,1.818,0,0,0-.267-.095l-.386-.1-.414,1.5.407.11a1.014,1.014,0,0,0,.378.04.656.656,0,0,0,.286-.1.753.753,0,0,0,.21-.211,1.055,1.055,0,0,0,.136-.3Z" transform="translate(-87.757 -100.816)"/>
        <path id="path920" class="cls-8" d="M132.16,107.343a3.392,3.392,0,0,1-.556.871,2.09,2.09,0,0,1-.706.523,1.867,1.867,0,0,1-.837.149,2.612,2.612,0,0,1-.943-.246,2.9,2.9,0,0,1-.8-.513,1.636,1.636,0,0,1-.43-.665,1.833,1.833,0,0,1-.063-.831,3.7,3.7,0,0,1,.317-1.01,3.272,3.272,0,0,1,.547-.852,2.06,2.06,0,0,1,.7-.517,1.872,1.872,0,0,1,.834-.15,2.6,2.6,0,0,1,.951.245,2.814,2.814,0,0,1,.785.506,1.6,1.6,0,0,1,.435.663,1.811,1.811,0,0,1,.068.829,3.41,3.41,0,0,1-.3,1Zm-.919-.359a3.46,3.46,0,0,0,.221-.621,1.366,1.366,0,0,0,.032-.542.889.889,0,0,0-.2-.447,1.24,1.24,0,0,0-.472-.341,1.164,1.164,0,0,0-.582-.118,1.055,1.055,0,0,0-.485.159,1.459,1.459,0,0,0-.4.378,3.139,3.139,0,0,0-.306.532,3.659,3.659,0,0,0-.23.64,1.443,1.443,0,0,0-.037.544.889.889,0,0,0,.2.447,1.318,1.318,0,0,0,.478.336,1.191,1.191,0,0,0,.58.121,1.043,1.043,0,0,0,.486-.163,1.447,1.447,0,0,0,.395-.383,3.1,3.1,0,0,0,.315-.543Z" transform="translate(-89.267 -101.455)"/>
        <path id="path922" class="cls-8" d="M135.737,111.681a1.3,1.3,0,0,1-.106.147.516.516,0,0,1-.086.089.149.149,0,0,1-.075.032.088.088,0,0,1-.063-.014l-1.794-1.119a.3.3,0,0,1-.133-.163.291.291,0,0,1,.055-.234l2.235-3.528a.1.1,0,0,1,.052-.043.18.18,0,0,1,.091,0,.755.755,0,0,1,.136.051,2.049,2.049,0,0,1,.2.112,1.986,1.986,0,0,1,.188.13.746.746,0,0,1,.106.1.149.149,0,0,1,.039.079.094.094,0,0,1-.013.067l-1.98,3.126,1.232.768a.09.09,0,0,1,.04.05.124.124,0,0,1,.005.079.415.415,0,0,1-.042.112,1.222,1.222,0,0,1-.086.156Z" transform="translate(-90.778 -102.186)"/>
        <path id="path924" class="cls-8" d="M140,115.389a1.238,1.238,0,0,1-.086.191.128.128,0,0,1-.094.071.238.238,0,0,1-.136-.053,2.72,2.72,0,0,1-.221-.163q-.142-.113-.218-.183a.733.733,0,0,1-.109-.109.149.149,0,0,1-.029-.083.25.25,0,0,1,.019-.08l.34-.912-1.354-1.08-.795.517a.286.286,0,0,1-.084.042.158.158,0,0,1-.092-.005.591.591,0,0,1-.13-.072q-.077-.052-.2-.148a2.375,2.375,0,0,1-.194-.168.2.2,0,0,1-.069-.119.144.144,0,0,1,.054-.107,1.161,1.161,0,0,1,.167-.121l3.682-2.287a.331.331,0,0,1,.1-.044.164.164,0,0,1,.105.011.638.638,0,0,1,.152.09q.091.063.233.177.164.131.257.214a.74.74,0,0,1,.135.139.167.167,0,0,1,.042.106.316.316,0,0,1-.025.116Zm.47-3.943,0,0-1.741,1.114,1.022.815Z" transform="translate(-91.597 -103.152)"/>
        <path id="path926" class="cls-8" d="M144.51,119.583a.357.357,0,0,1-.126.08.3.3,0,0,1-.132.017.3.3,0,0,1-.126-.038.489.489,0,0,1-.1-.083l-.277-.287a.839.839,0,0,1-.133-.173.454.454,0,0,1-.052-.182.87.87,0,0,1,.028-.228q.033-.13.1-.316l.766-2.308q.07-.2.159-.43t.186-.432l-.005-.005q-.176.187-.357.368t-.375.366l-1.748,1.66a.1.1,0,0,1-.061.029.147.147,0,0,1-.083-.014.582.582,0,0,1-.11-.073,1.673,1.673,0,0,1-.154-.144,1.642,1.642,0,0,1-.136-.156.579.579,0,0,1-.068-.112.142.142,0,0,1-.008-.08.118.118,0,0,1,.034-.057l3-2.852a.312.312,0,0,1,.247-.1.362.362,0,0,1,.23.115l.348.361a.888.888,0,0,1,.14.181.428.428,0,0,1,.06.169.56.56,0,0,1-.012.2,1.769,1.769,0,0,1-.076.254l-.6,1.805q-.057.162-.113.319t-.11.311q-.056.152-.113.3t-.115.291l0,0q.173-.179.365-.371t.372-.358l1.567-1.488a.1.1,0,0,1,.061-.029.171.171,0,0,1,.086.017.44.44,0,0,1,.112.075,1.675,1.675,0,0,1,.154.144,1.6,1.6,0,0,1,.133.153.357.357,0,0,1,.066.109.142.142,0,0,1,.008.08.118.118,0,0,1-.034.057Z" transform="translate(-92.968 -104.099)"/>
        <path id="path928" class="cls-8" d="M148.589,125.118a1.238,1.238,0,0,1-.13.164.128.128,0,0,1-.109.046.235.235,0,0,1-.118-.085,2.71,2.71,0,0,1-.174-.212q-.11-.144-.166-.231a.725.725,0,0,1-.078-.132.149.149,0,0,1-.008-.087.241.241,0,0,1,.038-.073l.555-.8-1.045-1.377-.9.307a.288.288,0,0,1-.092.02.158.158,0,0,1-.088-.028.587.587,0,0,1-.108-.1q-.062-.069-.154-.191a2.365,2.365,0,0,1-.146-.21.2.2,0,0,1-.037-.132.144.144,0,0,1,.079-.09,1.166,1.166,0,0,1,.192-.077l4.135-1.319a.333.333,0,0,1,.107-.018.164.164,0,0,1,.1.037.635.635,0,0,1,.125.124q.072.084.182.228.127.167.2.271a.736.736,0,0,1,.1.168.167.167,0,0,1,.015.113.318.318,0,0,1-.053.106Zm1.432-3.707,0,0-1.964.655.789,1.04Z" transform="translate(-94.069 -105.821)"/>
      </g>
    </g>
  </g>
</svg>
